<svg width="35" height="35" viewBox="0 0 35 35" fill="none" xmlns="http://www.w3.org/2000/svg">
<path fill-rule="evenodd" clip-rule="evenodd" d="M24.8329 14.2552C24.8329 20.0971 20.0971 24.833 14.2552 24.833C8.41321 24.833 3.67737 20.0971 3.67737 14.2552C3.67737 8.41324 8.41321 3.6774 14.2552 3.6774C20.0971 3.6774 24.8329 8.41324 24.8329 14.2552ZM22.7441 24.8812C20.4175 26.7423 17.4663 27.8552 14.2552 27.8552C6.74408 27.8552 0.655151 21.7663 0.655151 14.2552C0.655151 6.74411 6.74408 0.655182 14.2552 0.655182C21.7662 0.655182 27.8552 6.74411 27.8552 14.2552C27.8552 17.4663 26.7423 20.4175 24.8811 22.7441L34.2126 32.0756C34.8027 32.6657 34.8027 33.6225 34.2126 34.2126C33.6224 34.8027 32.6657 34.8027 32.0755 34.2126L22.7441 24.8812Z" fill="#F7FFE0"/>
</svg>
